<?xml version="1.0" encoding="utf-8"?>
<!-- Generator: Adobe Illustrator 25.1.0, SVG Export Plug-In . SVG Version: 6.00 Build 0)  -->
<svg version="1.2" baseProfile="tiny" id="Layer_1" xmlns="http://www.w3.org/2000/svg" xmlns:xlink="http://www.w3.org/1999/xlink"
	 x="0px" y="0px" viewBox="0 0 367.82 284.22" overflow="visible" xml:space="preserve">
<path fill="#000029" d="M14.17,284.22h11.99l8.21-28.35l8.21,28.35h11.99l14.17-51.58H55.24l-7.12,29.68l-7.99-29.82H28.85
	l-7.92,29.82l-7.12-29.68H0L14.17,284.22z M62.06,283.93H75.5l2.91-9.23H94.4l2.98,9.23h13.74l-17.95-51.58H79.94L62.06,283.93z
	 M81.68,264.15l4.72-15.02l4.72,15.02H81.68z M114.32,283.93h33.07v-11.87h-19.98v-39.42h-13.08V283.93z M151.08,283.93h13.08V270.6
	l4.07-5.35l10.25,18.68h15.26l-16.28-29.46l15.77-21.83h-15.04l-14.02,20.3v-20.3h-13.08V283.93z M209.13,283.93h13.08v-18.98h19.33
	V253.6h-19.33v-9.08h21.51v-11.87h-34.6V283.93z M248.48,283.93h13.01v-15.9h4.65l8.65,15.9h14.75l-10.46-18.61
	c5.38-2.71,9.08-7.47,9.08-15.09v-0.37c0-5.2-1.6-9.16-4.43-12.02c-3.27-3.37-8.43-5.2-15.26-5.2h-19.99V283.93z M261.49,257.56
	v-13.41h6.4c4.36,0,7.12,2.2,7.12,6.6v0.15c0,4.1-2.62,6.67-7.05,6.67H261.49z M292.3,283.93h35.32v-11.58h-22.39v-8.79h19.91
	v-10.92h-19.91v-8.43h22.09v-11.58H292.3V283.93z M332.5,283.93h35.32v-11.58h-22.39v-8.79h19.91v-10.92h-19.91v-8.43h22.09v-11.58
	H332.5V283.93z"/>
<path fill="#FFDC00" d="M295.85,93.47c-0.58-6.16-2.37-8.92-3.6-15.23c-2.43-8.29-10.42-26.6-20.41-37.86
	c-4.8-5.4-8.78-10.18-13.57-14.49c-2.92-1.55-6.04-4.4-9.19-5.91c-11.37-5.4-23.39-13.27-35.1-17.02
	c-39.98-4.7-45.79-2.53-47.87-2.07c-1.92,0.43-4.8,1.4-5.6,1.49c-17.23,2.06-30.01,10.54-44.82,22.67
	c-8.76,7.18-18.79,13.66-26.22,23.35c-0.09,0.16-0.19,0.32-0.28,0.48c-9.67,17.34-9.66,21.5-12.54,30.86
	c-0.35,1.13-0.67,2.27-0.97,3.41c-1.36,8.08-4.79,16.37-4.92,25.2c0,0,0.12,0.48,0.77,0.48c0.65,0,5.85-0.32,9.1-0.29
	c3.25,0.02,21.18,0.57,24.09,0.54c2.9-0.02,24.56-0.78,28.37-0.84c3.81-0.06,12.89,0.04,12.89,0.04c0.8-3.27,2.93-7.54,3.76-9.54
	c1.51-3.67,2.84-6.36,5.44-9.07c4.45-4.65,10.17-7,15.92-10.1c3.78-2.04,8.4-2.13,12.92-2.13c6.04,0,12.02,2.08,17.3,4.15
	c4.95,1.93,6.86,3.68,10.37,7.4c2.72,2.89,5.5,6.32,7.52,10.33c1.34,2.65,1.49,7.81,2.3,9.02c0,0,19.54,0.73,28.22,0.37
	c8.7-0.35,20.67-0.71,25.58-0.71c4.91,0,6.25,0.33,10.95,0.33c3.57,0,8.02,0.17,9.82,0.17c0.57,0,0.6-0.17,0.6-0.17
	C297.28,105.24,296.15,96.6,295.85,93.47"/>
<path fill="#FF0000" d="M296.92,118.32c0,0-0.27-0.23-0.75-0.29c-0.93-0.11-2.62-0.09-4.59-0.09c-2.98,0-7.61,0.19-17.86,0.19
	s-34.35,1.32-47.06,0c-7.69-0.8-23.49,0.06-30.51,0.19c-2.76,0.05-35.64-0.49-41.86-0.13c-4.58,0.26-17.41,1.67-55.99-0.24
	c-7.48-0.37-23.21,0.01-26.65,0.16c-0.43,0.02-0.67,0.4-0.67,0.4c0.58,13.57,5.38,27.1,8.54,40.39c0.13,0.35,0.26,0.7,0.41,1.05
	c6.1,15.59,18.27,31.3,19.48,31.3c1.14,0,26.57-20.56,30.87-24.3c6.99-6.06,14.89-13.06,21.98-19.29
	c3.92-3.44,6.71-7.13,10.25-10.26c3.23-2.85,6.25-5.52,8.94-7.91c7.58-6.71,12.58-11.17,12.58-11.17s9.23,8.82,11.45,10.8
	c5.02,4.47,8.8,9.11,13.49,13.29c7.26,6.48,9.91,7.56,13.7,10.92c2.67,2.36,8.96,7.15,10.65,8.63
	c17.66,15.54,33.45,29.27,34.13,29.27c1.14,0.01,4.12-4.98,5.49-6.54c4.51-6.3,9.95-11.86,13.72-21.28
	C292.34,149.14,298.09,125.89,296.92,118.32"/>
</svg>
