<svg width="460" height="119" viewBox="0 0 460 119" fill="none" xmlns="http://www.w3.org/2000/svg">
<path d="M312.16 61.7895C311.789 57.7132 310.549 55.9148 309.682 51.7186C308.071 46.2036 302.618 34.2144 295.803 26.7812C292.581 23.1844 289.854 20.0672 286.509 17.1898C284.526 16.1108 282.419 14.3124 280.189 13.2334C272.381 9.63667 264.203 4.48133 256.271 1.96361C229.009 -1.15357 225.043 0.285126 223.556 0.644801C222.193 0.884584 220.334 1.60393 219.714 1.60393C207.942 2.92274 199.267 8.55764 189.106 16.5904C183.157 21.386 176.342 25.5822 171.261 32.0564C171.137 32.1763 171.137 32.2962 171.013 32.4161C164.445 43.8058 164.445 46.5633 162.462 52.7976C162.214 53.517 161.967 54.2363 161.843 55.0756C160.975 60.3508 158.621 65.8658 158.497 71.7405C158.497 71.7405 158.621 72.1002 158.992 72.1002C159.488 72.1002 162.958 71.8604 165.189 71.8604C167.419 71.8604 179.688 72.2201 181.67 72.2201C183.653 72.2201 198.4 71.7405 201.002 71.6206C203.605 71.6206 209.801 71.6206 209.801 71.6206C210.296 69.4626 211.783 66.705 212.403 65.3862C213.394 62.9884 214.386 61.19 216.121 59.3917C219.095 56.2745 223.06 54.7159 227.026 52.6777C229.628 51.3589 232.726 51.239 235.824 51.239C239.914 51.239 244.003 52.5578 247.597 53.9965C250.943 55.3153 252.306 56.3944 254.661 58.9121C256.519 60.8304 258.378 63.1083 259.741 65.7459C260.609 67.5443 260.733 70.9013 261.352 71.7405C261.352 71.7405 274.736 72.2201 280.56 71.9803C286.509 71.7405 294.687 71.5007 298.033 71.5007C301.379 71.5007 302.247 71.7405 305.469 71.7405C307.947 71.7405 310.921 71.8604 312.16 71.8604C312.532 71.8604 312.532 71.7405 312.532 71.7405C313.028 69.4626 312.284 63.8277 312.16 61.7895Z" fill="black"/>
<path d="M306.336 106.749C304.849 110.106 304.229 110.945 301.751 115.381C301.255 116.34 300.512 117.659 299.892 118.258L299.768 118.378C299.644 118.498 299.52 118.498 299.396 118.498C299.396 118.498 299.149 118.498 298.901 118.378C298.901 118.378 298.901 118.378 298.777 118.378L295.059 115.98C288.739 112.504 278.33 106.389 276.595 105.31C272.505 102.792 268.168 99.9149 263.831 97.1574C262.468 96.3182 261.104 95.479 259.865 94.6397C258.378 93.6806 257.015 92.6016 255.652 91.5225C254.413 90.5634 253.173 89.6043 251.934 88.765C249.456 87.2065 247.225 85.7678 245.118 84.3291C240.781 81.5716 237.559 79.5334 236.196 78.5743C235.948 78.4544 235.824 78.3345 235.7 78.2146C235.576 78.3345 235.452 78.4544 235.205 78.5743C233.841 79.4135 230.619 81.5716 226.282 84.3291C224.176 85.6479 221.945 87.0866 219.466 88.765C218.103 89.6043 216.988 90.5634 215.749 91.5225C214.386 92.6016 213.146 93.5607 211.535 94.6397C210.296 95.479 208.933 96.3182 207.57 97.1574C203.233 99.9149 198.895 102.672 194.806 105.31C192.575 106.749 176.465 116.1 172.376 118.138L172.004 118.378C171.88 118.498 171.756 118.498 171.632 118.498C171.508 118.498 171.508 118.498 171.508 118.498V118.378C171.508 118.378 171.385 118.378 171.385 118.258C170.269 117.059 168.163 113.583 164.941 105.55C164.817 105.31 164.817 105.07 164.693 104.831C162.586 96.1983 159.364 87.3263 158.868 78.4544C158.868 78.2146 158.992 77.9748 159.24 77.9748C159.24 77.9748 159.24 77.9748 159.364 77.9748C161.719 77.8549 172.5 77.6151 177.581 77.8549C203.852 79.1737 212.651 78.2146 215.749 77.9748C219.962 77.735 242.392 78.0947 244.251 78.0947C249.084 77.9748 259.865 77.4952 265.07 77.9748C273.744 78.814 290.226 77.9748 297.166 77.9748C304.105 77.9748 307.327 77.8549 309.31 77.8549C310.673 77.8549 311.789 77.8549 312.408 77.8549C312.532 77.8549 312.532 77.8549 312.656 77.8549C312.78 77.8549 313.028 78.0947 313.028 78.2146C313.524 83.6097 310.426 97.637 306.336 106.749Z" fill="black"/>
<path d="M312.284 61.4298C311.913 57.3535 310.673 55.5551 309.806 51.4788C308.195 46.0837 302.618 33.9746 295.803 26.6612C292.457 23.0645 289.731 19.9473 286.509 17.1898C284.526 16.1108 282.419 14.3124 280.189 13.3533C272.381 9.75652 264.203 4.60118 256.148 2.20335C228.761 -0.913827 224.795 0.524873 223.308 0.884548C221.945 1.12433 219.962 1.84368 219.467 1.84368C207.694 3.16249 198.896 8.79739 188.734 16.7102C182.786 21.386 175.846 25.7021 170.765 32.0563C170.641 32.1762 170.641 32.2961 170.517 32.416C163.949 43.8057 163.949 46.5632 161.967 52.6777C161.719 53.397 161.471 54.1164 161.347 54.9556C160.356 60.2309 158.125 65.7459 158.001 71.5007C158.001 71.5007 158.125 71.8603 158.497 71.8603C158.993 71.8603 162.462 71.6206 164.693 71.6206C166.924 71.6206 179.192 71.9802 181.175 71.9802C183.157 71.9802 198.028 71.5007 200.63 71.3808C203.233 71.3808 209.429 71.3808 209.429 71.3808C209.925 69.2227 211.412 66.4652 212.031 65.1464C213.023 62.7486 214.014 60.9502 215.749 59.1518C218.847 56.1546 222.689 54.596 226.654 52.5578C229.256 51.239 232.355 51.1191 235.453 51.1191C239.542 51.1191 243.631 52.4379 247.349 53.8766C250.695 55.1954 252.058 56.2744 254.413 58.7922C256.272 60.7104 258.13 62.9884 259.617 65.626C260.485 67.4243 260.609 70.7813 261.228 71.5007C261.228 71.5007 274.612 71.9802 280.56 71.7404C286.509 71.5007 294.687 71.2609 298.033 71.2609C301.379 71.2609 302.371 71.5007 305.593 71.5007C308.071 71.5007 311.045 71.6206 312.284 71.6206C312.656 71.6206 312.656 71.5007 312.656 71.5007C313.276 69.2227 312.532 63.4679 312.284 61.4298Z" fill="black"/>
<path d="M306.584 106.269C305.097 109.626 304.477 110.465 301.999 114.901C301.503 115.861 300.76 117.179 300.14 117.779L300.016 117.899C299.892 118.019 299.768 118.019 299.521 118.019C299.521 118.019 299.273 118.019 299.025 117.899C299.025 117.899 299.025 117.899 298.901 117.899L295.183 115.501C288.863 112.024 278.454 105.91 276.719 104.831C272.629 102.313 268.168 99.4355 263.955 96.7979C262.592 95.9586 261.228 95.1194 259.989 94.2801C258.502 93.321 257.139 92.242 255.776 91.2828C254.537 90.3237 253.297 89.3646 252.058 88.5253C249.58 86.9668 247.225 85.528 245.242 84.2092C240.905 81.4517 237.683 79.4136 236.32 78.4545C236.072 78.3346 235.948 78.2147 235.824 78.0948C235.7 78.2147 235.577 78.3346 235.329 78.4545C233.966 79.2937 230.744 81.4517 226.406 84.2092C224.3 85.528 222.069 86.9668 219.591 88.5253C218.227 89.3646 217.112 90.3237 215.873 91.2828C214.51 92.242 213.147 93.321 211.66 94.2801C210.296 95.1194 209.057 95.9586 207.694 96.7979C203.357 99.5554 198.896 102.313 194.93 104.831C192.699 106.269 176.589 115.621 172.376 117.539L172.004 117.779C171.88 117.899 171.756 117.899 171.633 117.899C171.509 117.899 171.509 117.899 171.509 117.899V117.779C171.509 117.779 171.385 117.779 171.385 117.659C170.269 116.46 168.163 112.983 164.941 104.95C164.817 104.711 164.817 104.471 164.693 104.231C162.586 95.5989 159.364 86.727 158.869 77.9749C158.869 77.7351 158.992 77.4953 159.24 77.4953C159.24 77.4953 159.24 77.4953 159.364 77.4953C161.719 77.3754 172.5 77.1356 177.581 77.3754C203.976 78.5743 212.775 77.7351 215.997 77.4953C220.21 77.2555 242.764 77.6152 244.623 77.6152C249.456 77.4953 260.237 77.0157 265.566 77.4953C274.24 78.3346 290.722 77.4953 297.786 77.4953C304.849 77.4953 307.947 77.3754 310.054 77.3754C311.417 77.3754 312.532 77.3754 313.152 77.3754C313.276 77.3754 313.276 77.3754 313.4 77.3754C313.524 77.3754 313.772 77.6152 313.772 77.7351C313.772 83.2501 310.674 97.1575 306.584 106.269Z" fill="black"/>
<path d="M336.945 59.6315H355.286V64.6669H343.017V70.3018H353.303V75.3373H343.017V85.8877H336.945V59.6315Z" fill="black"/>
<path d="M380.937 71.261C383.788 71.261 384.903 70.3018 384.903 67.904C384.903 65.5062 383.912 64.547 380.937 64.547H376.476V71.261H380.937ZM370.404 59.6315H381.433C388.125 59.6315 390.727 62.0293 390.727 67.904C390.727 72.2201 389.24 74.6179 385.894 75.5771L391.719 85.7678H384.903L379.574 76.0566H376.352V85.7678H370.404V59.6315Z" fill="black"/>
<path d="M407.085 59.6315H425.674V64.6669H413.033V70.062H423.691V75.0975H413.033V80.9722H426.045V85.8877H407.085V59.6315Z" fill="black"/>
<path d="M441.04 59.6315V85.8877H460V80.9722H446.988V75.0975H457.645V70.062H446.988V64.6669H459.628V59.6315H441.04Z" fill="black"/>
<path d="M0 59.2717H3.84159L9.4181 80.1329L15.3664 59.2717H18.9601L24.9084 80.1329L30.4849 59.2717H34.2026L26.7672 85.8877H23.0496L17.1013 65.2663L11.153 85.8877H7.43534L0 59.2717Z" fill="black"/>
<path d="M61.0938 75.8168L56.7565 63.7077L52.4192 75.8168H61.0938ZM54.8977 59.2717H58.6153L68.653 85.8877H64.8115L62.333 79.0539H51.18L48.7015 85.8877H44.9839L54.8977 59.2717Z" fill="black"/>
<path d="M85.1347 59.2717H88.8524V82.6506H102.112V85.8877H85.1347V59.2717Z" fill="black"/>
<path d="M118.346 59.2717H122.064V73.4189L134.828 59.2717H139.289L129.499 70.1819L139.413 85.8877H135.199L127.02 72.8195L122.064 78.2146V85.8877H118.346V59.2717Z" fill="black"/>
</svg>
