<?xml version="1.0" encoding="utf-8"?>
<!-- Generator: Adobe Illustrator 25.1.0, SVG Export Plug-In . SVG Version: 6.00 Build 0)  -->
<svg version="1.2" baseProfile="tiny" id="Layer_1" xmlns="http://www.w3.org/2000/svg" xmlns:xlink="http://www.w3.org/1999/xlink"
	 x="0px" y="0px" viewBox="0 0 377.01 141.73" overflow="visible" xml:space="preserve">
<path fill="#FFDC00" d="M162.6,69.09c-0.41-4.3-1.67-6.22-2.54-10.63c-1.71-5.79-7.33-18.56-14.36-26.41
	c-3.37-3.77-6.17-7.1-9.55-10.11c-2.05-1.08-4.25-3.07-6.47-4.12c-8-3.77-16.45-9.26-24.69-11.87C76.88,2.66,72.79,4.18,71.33,4.5
	c-1.35,0.3-3.38,0.97-3.94,1.04c-12.12,1.44-21.11,7.35-31.52,15.82c-6.16,5.01-13.22,9.53-18.45,16.29
	c-0.07,0.11-0.14,0.23-0.2,0.33c-6.8,12.1-6.79,15-8.82,21.53c-0.25,0.79-0.47,1.58-0.68,2.38c-0.96,5.64-3.38,11.43-3.46,17.58
	c0,0,0.08,0.33,0.54,0.33c0.46,0,4.12-0.22,6.4-0.2c2.28,0.02,14.9,0.4,16.94,0.38c2.04-0.02,17.28-0.54,19.96-0.58
	c2.68-0.04,9.07,0.03,9.07,0.03c0.57-2.28,2.07-5.26,2.64-6.65c1.06-2.56,2-4.43,3.83-6.33c3.13-3.24,7.15-4.88,11.2-7.05
	c2.66-1.42,5.91-1.48,9.09-1.48c4.25,0,8.45,1.45,12.17,2.89c3.48,1.35,4.83,2.57,7.3,5.17c1.92,2.02,3.87,4.41,5.29,7.21
	c0.94,1.85,1.04,5.45,1.62,6.29c0,0,13.75,0.51,19.85,0.26c6.12-0.25,14.54-0.49,17.99-0.49c3.46,0,4.39,0.23,7.7,0.23
	c2.51,0,5.64,0.12,6.91,0.12c0.4,0,0.42-0.12,0.42-0.12C163.6,77.3,162.81,71.27,162.6,69.09"/>
<path fill="#FF0000" d="M163.35,86.43c0,0-0.19-0.16-0.52-0.2c-0.65-0.08-1.84-0.06-3.23-0.06c-2.1,0-5.35,0.13-12.57,0.13
	s-24.16,0.92-33.11,0c-5.41-0.56-16.53,0.04-21.46,0.13c-1.95,0.04-25.07-0.34-29.45-0.09c-3.22,0.19-12.24,1.16-39.39-0.17
	c-5.26-0.26-16.33,0.01-18.74,0.11c-0.3,0.01-0.47,0.28-0.47,0.28c0.41,9.47,3.79,18.91,6.01,28.18c0.09,0.24,0.19,0.49,0.28,0.73
	c4.29,10.87,12.86,21.84,13.7,21.84c0.8,0,18.69-14.35,21.71-16.95c4.91-4.23,10.48-9.11,15.46-13.46c2.76-2.4,4.72-4.98,7.21-7.16
	c2.27-1.99,4.4-3.86,6.29-5.52c5.33-4.68,8.85-7.79,8.85-7.79s6.49,6.15,8.06,7.54c3.53,3.12,6.19,6.36,9.49,9.27
	c5.1,4.52,6.97,5.28,9.64,7.62c1.88,1.65,6.3,4.99,7.49,6.03c12.42,10.84,23.53,20.42,24.01,20.43c0.8,0.01,2.9-3.47,3.86-4.57
	c3.17-4.4,7-8.28,9.65-14.85C160.13,107.93,164.18,91.71,163.35,86.43"/>
<path fill="#FFFFFF" d="M312.54,137.86h35.97v-11.69h-22.79v-8.88h20.28v-11.03h-20.28v-8.51h22.5V86.06h-35.67V137.86z
	 M271.61,137.86h35.97v-11.69h-22.79v-8.88h20.28v-11.03h-20.28v-8.51h22.5V86.06h-35.67V137.86z M240.24,111.22V97.68h6.51
	c4.44,0,7.25,2.22,7.25,6.66v0.15c0,4.14-2.66,6.73-7.18,6.73H240.24z M226.99,137.86h13.25V121.8h4.74l8.81,16.06h15.02
	l-10.66-18.8c5.48-2.74,9.25-7.55,9.25-15.24v-0.37c0-5.25-1.63-9.25-4.51-12.14c-3.33-3.4-8.59-5.25-15.54-5.25h-20.35V137.86z
	 M186.92,137.86h13.32v-19.17h19.69v-11.47h-19.69v-9.18h21.91V86.06h-35.23V137.86z"/>
<path fill="#FFFFFF" d="M291.88,26.37v51.8h33.67V66.19H305.2V26.37H291.88z M356.92,26.37l-14.28,20.5v-20.5h-13.32v51.8h13.32
	V64.71l4.14-5.4l10.44,18.87h15.54l-16.58-29.75l16.06-22.05H356.92z M204.86,26.22l-8.07,30.12l-7.25-29.97h-14.06l14.43,52.1
	h12.21l8.36-28.64l8.36,28.64h12.21l14.43-52.1h-13.76l-7.25,29.97l-8.14-30.12H204.86z M263.46,43.02l4.81,15.17h-9.62
	L263.46,43.02z M256.87,26.08l-18.2,52.1h13.69l2.96-9.32h16.28l3.03,9.32h13.99l-18.28-52.1H256.87z"/>
</svg>
