<svg width="206" height="54" viewBox="0 0 206 54" fill="none" xmlns="http://www.w3.org/2000/svg">
<path d="M139.647 27.642C139.481 25.8184 138.927 25.0139 138.539 23.1367C137.818 20.6695 135.379 15.3061 132.33 11.9808C130.888 10.3717 129.669 8.97723 128.172 7.69001C127.285 7.2073 126.342 6.40278 125.345 5.92007C121.852 4.31104 118.193 2.00476 114.645 0.878436C102.449 -0.51606 100.675 0.127553 100.01 0.288457C99.3997 0.395726 98.5682 0.717532 98.291 0.717532C93.0244 1.30751 89.1438 3.82833 84.5979 7.42184C81.9369 9.56721 78.8878 11.4444 76.6149 14.3407C76.5594 14.3943 76.5594 14.4479 76.504 14.5016C73.5658 19.5969 73.5658 20.8304 72.6788 23.6194C72.5679 23.9412 72.457 24.2631 72.4016 24.6385C72.0135 26.9984 70.9602 29.4656 70.9048 32.0937C70.9048 32.0937 70.9602 32.2546 71.1265 32.2546C71.3483 32.2546 72.9005 32.1473 73.8984 32.1473C74.8963 32.1473 80.3846 32.3082 81.2716 32.3082C82.1586 32.3082 88.7557 32.0937 89.9199 32.04C91.0841 32.04 93.856 32.04 93.856 32.04C94.0777 31.0746 94.743 29.841 95.0201 29.2511C95.4636 28.1784 95.9071 27.3738 96.6833 26.5693C98.0138 25.1748 99.7878 24.4776 101.562 23.5658C102.726 22.9758 104.112 22.9222 105.498 22.9222C107.327 22.9222 109.157 23.5122 110.764 24.1558C112.261 24.7458 112.871 25.2285 113.924 26.3548C114.756 27.2129 115.588 28.232 116.197 29.412C116.585 30.2165 116.641 31.7182 116.918 32.0937C116.918 32.0937 122.905 32.3082 125.511 32.2009C128.172 32.0937 131.831 31.9864 133.328 31.9864C134.824 31.9864 135.212 32.0937 136.654 32.0937C137.763 32.0937 139.093 32.1473 139.647 32.1473C139.814 32.1473 139.814 32.0937 139.814 32.0937C140.035 31.0746 139.703 28.5538 139.647 27.642Z" fill="#FFCB2B"/>
<path d="M137.042 47.7549C136.377 49.2566 136.099 49.6321 134.991 51.6165C134.769 52.0456 134.436 52.6356 134.159 52.9038L134.104 52.9574C134.048 53.011 133.993 53.011 133.937 53.011C133.937 53.011 133.826 53.011 133.716 52.9574C133.716 52.9574 133.716 52.9574 133.66 52.9574L131.997 51.8847C129.17 50.3293 124.513 47.594 123.737 47.1113C121.907 45.9849 119.967 44.6977 118.027 43.4641C117.417 43.0887 116.807 42.7132 116.253 42.3378C115.587 41.9087 114.978 41.426 114.368 40.9433C113.813 40.5142 113.259 40.0852 112.705 39.7097C111.596 39.0125 110.598 38.3689 109.656 37.7252C107.715 36.4916 106.274 35.5799 105.664 35.1508C105.553 35.0972 105.498 35.0435 105.442 34.9899C105.387 35.0435 105.332 35.0972 105.221 35.1508C104.611 35.5262 103.169 36.4916 101.229 37.7252C100.287 38.3152 99.2888 38.9588 98.1801 39.7097C97.5703 40.0852 97.0713 40.5142 96.5169 40.9433C95.9071 41.426 95.3527 41.8551 94.6321 42.3378C94.0777 42.7132 93.4679 43.0887 92.8581 43.4641C90.9177 44.6977 88.9774 45.9313 87.148 47.1113C86.1501 47.7549 78.9432 51.9384 77.1138 52.8501L76.9474 52.9574C76.892 53.011 76.8366 53.011 76.7811 53.011C76.7257 53.011 76.7257 53.011 76.7257 53.011V52.9574C76.7257 52.9574 76.6703 52.9574 76.6703 52.9038C76.1713 52.3674 75.2289 50.812 73.7875 47.2185C73.7321 47.1113 73.7321 47.004 73.6766 46.8967C72.7342 43.035 71.2928 39.0661 71.071 35.0972C71.071 34.9899 71.1265 34.8826 71.2374 34.8826C71.2374 34.8826 71.2374 34.8826 71.2928 34.8826C72.3461 34.829 77.1692 34.7217 79.4421 34.829C91.1949 35.419 95.131 34.9899 96.5169 34.8826C98.4018 34.7753 108.436 34.9362 109.268 34.9362C111.43 34.8826 116.253 34.6681 118.581 34.8826C122.462 35.2581 129.835 34.8826 132.939 34.8826C136.044 34.8826 137.485 34.829 138.372 34.829C138.982 34.829 139.481 34.829 139.758 34.829C139.814 34.829 139.814 34.829 139.869 34.829C139.925 34.829 140.036 34.9362 140.036 34.9899C140.257 37.4034 138.871 43.6787 137.042 47.7549Z" fill="#FF5C45"/>
<path d="M139.703 27.4811C139.537 25.6576 138.982 24.8531 138.594 23.0295C137.873 20.6159 135.379 15.1989 132.33 11.9272C130.833 10.3181 129.613 8.92363 128.172 7.69004C127.285 7.20733 126.342 6.40281 125.345 5.97374C121.852 4.3647 118.193 2.05842 114.59 0.985735C102.338 -0.40876 100.564 0.234854 99.8987 0.395757C99.2889 0.503026 98.4019 0.824832 98.1801 0.824832C92.9135 1.41481 88.9775 3.93563 84.4316 7.4755C81.7706 9.56724 78.6661 11.4981 76.3931 14.3407C76.3377 14.3943 76.3377 14.448 76.2822 14.5016C73.3441 19.5969 73.344 20.8305 72.457 23.5658C72.3462 23.8876 72.2353 24.2094 72.1799 24.5849C71.7364 26.9448 70.7385 29.412 70.683 31.9864C70.683 31.9864 70.7385 32.1473 70.9048 32.1473C71.1265 32.1473 72.6788 32.0401 73.6767 32.0401C74.6746 32.0401 80.1629 32.201 81.0499 32.201C81.9369 32.201 88.5894 31.9864 89.7536 31.9328C90.9178 31.9328 93.6897 31.9328 93.6897 31.9328C93.9114 30.9674 94.5767 29.7338 94.8539 29.1438C95.2974 28.0711 95.7409 27.2666 96.517 26.4621C97.9029 25.1212 99.6215 24.424 101.395 23.5122C102.56 22.9222 103.946 22.8686 105.332 22.8686C107.161 22.8686 108.99 23.4586 110.654 24.1022C112.15 24.6922 112.76 25.1749 113.814 26.3012C114.645 27.1593 115.477 28.1784 116.142 29.3583C116.53 30.1629 116.585 31.6646 116.863 31.9864C116.863 31.9864 122.85 32.201 125.511 32.0937C128.172 31.9864 131.831 31.8792 133.328 31.8792C134.824 31.8792 135.268 31.9864 136.709 31.9864C137.818 31.9864 139.149 32.0401 139.703 32.0401C139.869 32.0401 139.869 31.9864 139.869 31.9864C140.146 30.9674 139.814 28.3929 139.703 27.4811Z" fill="#FFCB2B"/>
<path d="M137.153 47.5404C136.488 49.0422 136.21 49.4176 135.102 51.4021C134.88 51.8312 134.547 52.4211 134.27 52.6893L134.215 52.7429C134.159 52.7966 134.104 52.7966 133.993 52.7966C133.993 52.7966 133.882 52.7966 133.771 52.7429C133.771 52.7429 133.771 52.7429 133.716 52.7429L132.053 51.6703C129.225 50.1149 124.568 47.3795 123.792 46.8968C121.963 45.7705 119.967 44.4832 118.082 43.3033C117.472 42.9278 116.863 42.5524 116.308 42.177C115.643 41.7479 115.033 41.2652 114.423 40.8361C113.869 40.407 113.315 39.9779 112.76 39.6025C111.651 38.9053 110.598 38.2616 109.711 37.6717C107.771 36.4381 106.329 35.5263 105.72 35.0972C105.609 35.0436 105.553 34.9899 105.498 34.9363C105.442 34.9899 105.387 35.0436 105.276 35.0972C104.666 35.4727 103.225 36.4381 101.285 37.6717C100.342 38.2616 99.3443 38.9053 98.2356 39.6025C97.6258 39.9779 97.1268 40.407 96.5724 40.8361C95.9626 41.2652 95.3528 41.7479 94.6876 42.177C94.0777 42.5524 93.5234 42.9278 92.9136 43.3033C90.9732 44.5369 88.9775 45.7705 87.2035 46.8968C86.2056 47.5404 78.9987 51.7239 77.1138 52.582L76.9475 52.6893C76.8921 52.7429 76.8366 52.7429 76.7812 52.7429C76.7258 52.7429 76.7257 52.7429 76.7257 52.7429V52.6893C76.7257 52.6893 76.6703 52.6893 76.6703 52.6357C76.1714 52.0993 75.2289 50.5439 73.7876 46.9504C73.7321 46.8432 73.7321 46.7359 73.6767 46.6286C72.7342 42.7669 71.2929 38.798 71.0711 34.8827C71.0711 34.7754 71.1265 34.6681 71.2374 34.6681C71.2374 34.6681 71.2374 34.6681 71.2929 34.6681C72.3462 34.6145 77.1693 34.5072 79.4422 34.6145C91.2504 35.1508 95.1865 34.7754 96.6279 34.6681C98.5128 34.5609 108.602 34.7218 109.434 34.7218C111.596 34.6681 116.419 34.4536 118.803 34.6681C122.684 35.0436 130.057 34.6681 133.217 34.6681C136.377 34.6681 137.763 34.6145 138.705 34.6145C139.315 34.6145 139.814 34.6145 140.091 34.6145C140.146 34.6145 140.146 34.6145 140.202 34.6145C140.257 34.6145 140.368 34.7218 140.368 34.7754C140.368 37.2426 138.982 43.4642 137.153 47.5404Z" fill="#FF5C45"/>
<path d="M150.735 26.6766H158.94V28.9293H153.451V31.4501H158.053V33.7027H153.451V38.4226H150.735V26.6766Z" fill="white"/>
<path d="M170.415 31.8792C171.69 31.8792 172.189 31.4501 172.189 30.3774C172.189 29.3047 171.746 28.8757 170.415 28.8757H168.42V31.8792H170.415ZM165.703 26.6766H170.637C173.631 26.6766 174.795 27.7493 174.795 30.3774C174.795 32.3083 174.13 33.3809 172.633 33.81L175.238 38.3689H172.189L169.806 34.0246H168.364V38.3689H165.703V26.6766Z" fill="white"/>
<path d="M182.113 26.6766H190.428V28.9293H184.774V31.3428H189.541V33.5955H184.774V36.2236H190.595V38.4226H182.113V26.6766Z" fill="white"/>
<path d="M197.303 26.6766V38.4226H205.785V36.2236H199.964V33.5955H204.731V31.3428H199.964V28.9293H205.618V26.6766H197.303Z" fill="white"/>
<path d="M0 26.5157H1.71857L4.21326 35.8481L6.87427 26.5157H8.48196L11.143 35.8481L13.6377 26.5157H15.3008L11.9745 38.4226H10.3114L7.6504 29.1975L4.98939 38.4226H3.32626L0 26.5157Z" fill="white"/>
<path d="M27.3307 33.9173L25.3904 28.5002L23.4501 33.9173H27.3307ZM24.5589 26.5157H26.222L30.7124 38.4226H28.9939L27.8851 35.3654H22.8957L21.787 38.4226H20.1238L24.5589 26.5157Z" fill="white"/>
<path d="M38.0857 26.5157H39.7488V36.9745H45.6807V38.4226H38.0857V26.5157Z" fill="white"/>
<path d="M52.943 26.5157H54.6061V32.8446L60.3162 26.5157H62.312L57.9324 31.3965L62.3674 38.4226H60.4825L56.8236 32.5764L54.6061 34.99V38.4226H52.943V26.5157Z" fill="white"/>
</svg>
